<svg width="48" height="48" viewBox="0 0 48 48" fill="none" xmlns="http://www.w3.org/2000/svg">
<g id="icon/behance">
<path id="vector" d="M15.5782 10.807C16.659 10.7869 17.7383 10.8977 18.7925 11.137C19.6801 11.3308 20.5228 11.6914 21.2758 12.1996C21.9712 12.705 22.5215 13.3845 22.8714 14.1698C23.2734 15.1354 23.4674 16.175 23.4406 17.2207C23.4863 18.3688 23.193 19.505 22.5975 20.4877C21.9709 21.4158 21.1048 22.157 20.0911 22.6327C21.4668 23.0036 22.665 23.8532 23.4703 25.0286C24.2434 26.274 24.632 27.7198 24.5874 29.185C24.6129 30.3532 24.3713 31.5118 23.8812 32.5725C23.4281 33.4978 22.7647 34.3042 21.944 34.9271C21.0992 35.5432 20.1484 35.999 19.139 36.2719C18.0922 36.5614 17.0108 36.7069 15.9247 36.7042H4V10.807H15.5782ZM14.8902 21.2814C15.7394 21.3164 16.5753 21.0622 17.2613 20.5603C17.5898 20.2679 17.8453 19.9026 18.0075 19.4938C18.1696 19.0849 18.2339 18.6438 18.1952 18.2057C18.2172 17.694 18.1153 17.1846 17.8982 16.7207C17.714 16.3514 17.4277 16.0427 17.0732 15.8313C16.7141 15.5987 16.3107 15.4431 15.8884 15.3743C15.4303 15.2855 14.9641 15.2451 14.4975 15.2538H9.40219V21.3045H14.8902V21.2814ZM15.1872 32.3068C15.7007 32.3138 16.2132 32.2584 16.7135 32.1418C17.1706 32.0409 17.6041 31.8533 17.9906 31.5891C18.3692 31.3251 18.6751 30.9698 18.8799 30.5562C19.1175 30.0288 19.2266 29.4525 19.1984 28.8748C19.2499 28.3483 19.1802 27.817 18.9945 27.3216C18.8089 26.8262 18.5123 26.38 18.1275 26.0169C17.3119 25.4162 16.3124 25.1186 15.301 25.1754H9.40219V32.3068H15.1872Z" fill="white"/>
<path id="vector_2" d="M32.2814 32.211C32.7054 32.604 33.2049 32.9067 33.7495 33.1007C34.2941 33.2948 34.8725 33.376 35.4495 33.3396C36.3642 33.3627 37.2611 33.0844 38.0021 32.5476C38.6049 32.1557 39.0613 31.5756 39.3006 30.8976H43.6089C43.1498 32.8278 42.0288 34.5362 40.4408 35.7256C38.9173 36.7368 37.117 37.2488 35.2894 37.1908C33.985 37.2079 32.6905 36.9627 31.4828 36.4697C30.3903 36.0141 29.4104 35.3254 28.6118 34.4517C27.8161 33.5363 27.2048 32.4757 26.8116 31.3282C26.3702 30.0457 26.1541 28.6964 26.173 27.3401C26.165 26.0066 26.3883 24.6818 26.833 23.4246C27.4305 21.656 28.5729 20.1221 30.0963 19.043C31.6198 17.964 33.4458 17.3953 35.3125 17.4185C36.6907 17.3897 38.0535 17.7122 39.2726 18.3557C40.3745 18.96 41.3251 19.8062 42.0529 20.8308C42.7973 21.9059 43.3309 23.1125 43.6254 24.3866C43.9482 25.7547 44.0634 27.1637 43.9669 28.5661H31.1347C31.0307 29.8837 31.4418 31.1903 32.2814 32.211ZM37.9113 22.362C37.5522 22.0028 37.1203 21.7248 36.6447 21.5466C36.1691 21.3684 35.6608 21.2943 35.1541 21.3291C34.4819 21.3034 33.8145 21.4524 33.217 21.7614C32.7433 22.0222 32.3251 22.3731 31.9861 22.7943C31.6856 23.1893 31.4617 23.637 31.326 24.1143C31.2038 24.5124 31.1274 24.9232 31.0983 25.3387H39.0465C38.9773 24.2557 38.5828 23.2188 37.9146 22.3637L37.9113 22.362Z" fill="white"/>
<path id="vector_3" d="M40.0333 12.5361H30.0737V15.0821H40.0333V12.5361Z" fill="white"/>
</g>
</svg>
