<svg width="33" height="32" viewBox="0 0 33 32" fill="none" xmlns="http://www.w3.org/2000/svg">
<g id="62bc16d481d5d6992d83b74d_icon.svg">
<path id="Vector" fill-rule="evenodd" clip-rule="evenodd" d="M24.3988 8.82296C24.3342 8.66685 24.2387 8.52053 24.1123 8.39336C24.1104 8.39147 24.1085 8.38958 24.1066 8.3877C23.8467 8.12923 23.5067 8 23.1667 8H9.83333C9.09695 8 8.5 8.59695 8.5 9.33333C8.5 10.0697 9.09695 10.6667 9.83333 10.6667H19.9477L8.89052 21.7239C8.36983 22.2446 8.36983 23.0888 8.89052 23.6095C9.41122 24.1302 10.2554 24.1302 10.7761 23.6095L21.8333 12.5523V22.6667C21.8333 23.403 22.4303 24 23.1667 24C23.903 24 24.5 23.403 24.5 22.6667V9.33529C24.5 9.3292 24.5 9.32311 24.4999 9.31702C24.4978 9.14218 24.4621 8.97543 24.3988 8.82296Z" fill="#573FEA"/>
</g>
</svg>
