<svg width="1920" height="120" viewBox="0 0 1920 120" fill="none" xmlns="http://www.w3.org/2000/svg">
<path d="M-43.6391 42.6369H10.8116H11.0772V37.5419C11.0772 32.1788 8.15546 27.0838 3.50724 24.4022L-35.0066 2.01117C-37.2644 0.67039 -39.9205 0 -42.5766 0C-45.2327 0 -47.8889 0.67039 -50.1466 2.01117L-88.6605 24.4022C-93.3087 27.0838 -96.2305 32.1788 -96.2305 37.5419V76.1564H-43.1078C-41.1157 76.1564 -39.3893 77.8994 -39.3893 79.9106V80.4469C-39.3893 82.4581 -41.1157 84.2011 -43.1078 84.2011H-96.0977C-95.5664 88.8938 -92.7775 93.1844 -88.6605 95.5978L-50.1466 117.989C-45.4984 120.67 -39.7877 120.67 -35.1395 117.989L3.24162 95.5978C7.88984 92.9162 10.8116 87.8212 10.8116 82.4581V50.6816H-43.6391C-45.6312 50.6816 -47.3577 48.9385 -47.3577 46.9274V46.3911C-47.3577 44.3799 -45.6312 42.6369 -43.6391 42.6369Z" fill="#573FEA"/>
<path d="M82.1302 42.6369H136.581H136.847V37.5419C136.847 32.1788 133.925 27.0838 129.277 24.4022L90.7626 2.01117C88.5049 0.67039 85.8488 0 83.1927 0C80.5365 0 77.8804 0.67039 75.6227 2.01117L37.1088 24.4022C32.4606 27.0838 29.5388 32.1788 29.5388 37.5419V76.1564H82.6614C84.6535 76.1564 86.38 77.8994 86.38 79.9106V80.4469C86.38 82.4581 84.6535 84.2011 82.6614 84.2011H29.6716C30.2029 88.8938 32.9918 93.1844 37.1088 95.5978L75.6227 117.989C80.2709 120.67 85.9816 120.67 90.6298 117.989L129.011 95.5978C133.659 92.9162 136.581 87.8212 136.581 82.4581V50.6816H82.1302C80.1381 50.6816 78.4116 48.9385 78.4116 46.9274V46.3911C78.4116 44.3799 80.1381 42.6369 82.1302 42.6369Z" fill="#45C9C0"/>
<path d="M207.9 42.6369H262.35H262.616V37.5419C262.616 32.1788 259.694 27.0838 255.046 24.4022L216.532 2.01117C214.274 0.67039 211.618 0 208.962 0C206.306 0 203.65 0.67039 201.392 2.01117L162.878 24.4022C158.23 27.0838 155.308 32.1788 155.308 37.5419V76.1564H208.431C210.423 76.1564 212.149 77.8994 212.149 79.9106V80.4469C212.149 82.4581 210.423 84.2011 208.431 84.2011H155.441C155.972 88.8938 158.761 93.1844 162.878 95.5978L201.392 117.989C206.04 120.67 211.751 120.67 216.399 117.989L254.78 95.5978C259.428 92.9162 262.35 87.8212 262.35 82.4581V50.6816H207.9C205.907 50.6816 204.181 48.9385 204.181 46.9274V46.3911C204.181 44.3799 205.907 42.6369 207.9 42.6369Z" fill="#F480D4"/>
<path d="M333.669 42.6369H388.119H388.385V37.5419C388.385 32.1788 385.463 27.0838 380.815 24.4022L342.301 2.01117C340.044 0.67039 337.387 0 334.731 0C332.075 0 329.419 0.67039 327.161 2.01117L288.647 24.4022C283.999 27.0838 281.077 32.1788 281.077 37.5419V76.1564H334.2C336.192 76.1564 337.919 77.8994 337.919 79.9106V80.4469C337.919 82.4581 336.192 84.2011 334.2 84.2011H281.21C281.741 88.8938 284.53 93.1844 288.647 95.5978L327.161 117.989C331.809 120.67 337.52 120.67 342.168 117.989L380.549 95.5978C385.198 92.9162 388.119 87.8212 388.119 82.4581V50.6816H333.669C331.677 50.6816 329.95 48.9385 329.95 46.9274V46.3911C329.95 44.3799 331.677 42.6369 333.669 42.6369Z" fill="#FFDE70"/>
<path d="M459.438 42.6369H513.889H514.154V37.5419C514.154 32.1788 511.232 27.0838 506.584 24.4022L468.07 2.01117C465.813 0.67039 463.157 0 460.5 0C457.844 0 455.188 0.67039 452.93 2.01117L414.417 24.4022C409.768 27.0838 406.847 32.1788 406.847 37.5419V76.1564H459.969C461.961 76.1564 463.688 77.8994 463.688 79.9106V80.4469C463.688 82.4581 461.961 84.2011 459.969 84.2011H406.979C407.511 88.8938 410.3 93.1844 414.417 95.5978L452.93 117.989C457.579 120.67 463.289 120.67 467.938 117.989L506.319 95.5978C510.967 92.9162 513.889 87.8212 513.889 82.4581V50.6816H459.438C457.446 50.6816 455.719 48.9385 455.719 46.9274V46.3911C455.719 44.3799 457.446 42.6369 459.438 42.6369Z" fill="#573FEA"/>
<path d="M585.207 42.6369H639.658H639.923V37.5419C639.923 32.1788 637.002 27.0838 632.353 24.4022L593.84 2.01117C591.582 0.67039 588.926 0 586.27 0C583.613 0 580.957 0.67039 578.7 2.01117L540.186 24.4022C535.537 27.0838 532.616 32.1788 532.616 37.5419V76.1564H585.738C587.73 76.1564 589.457 77.8994 589.457 79.9106V80.4469C589.457 82.4581 587.73 84.2011 585.738 84.2011H532.749C533.28 88.8938 536.069 93.1844 540.186 95.5978L578.7 117.989C583.348 120.67 589.059 120.67 593.707 117.989L632.088 95.5978C636.736 92.9162 639.658 87.8212 639.658 82.4581V50.6816H585.207C583.215 50.6816 581.489 48.9385 581.489 46.9274V46.3911C581.489 44.3799 583.215 42.6369 585.207 42.6369Z" fill="#45C9C0"/>
<path d="M710.976 42.6369H765.427H765.692V37.5419C765.692 32.1788 762.771 27.0838 758.122 24.4022L719.608 2.01117C717.351 0.67039 714.695 0 712.038 0C709.382 0 706.726 0.67039 704.469 2.01117L665.955 24.4022C661.306 27.0838 658.385 32.1788 658.385 37.5419V76.1564H711.507C713.499 76.1564 715.226 77.8994 715.226 79.9106V80.4469C715.226 82.4581 713.499 84.2011 711.507 84.2011H658.517C659.049 88.8938 661.838 93.1844 665.955 95.5978L704.469 117.989C709.117 120.67 714.827 120.67 719.476 117.989L757.857 95.5978C762.505 92.9162 765.427 87.8212 765.427 82.4581V50.6816H710.976C708.984 50.6816 707.257 48.9385 707.257 46.9274V46.3911C707.257 44.3799 708.984 42.6369 710.976 42.6369Z" fill="#F480D4"/>
<path d="M836.746 42.6369H891.196H891.462V37.5419C891.462 32.1788 888.54 27.0838 883.892 24.4022L845.378 2.01117C843.12 0.67039 840.464 0 837.808 0C835.152 0 832.496 0.67039 830.238 2.01117L791.724 24.4022C787.076 27.0838 784.154 32.1788 784.154 37.5419V76.1564H837.277C839.269 76.1564 840.995 77.8994 840.995 79.9106V80.4469C840.995 82.4581 839.269 84.2011 837.277 84.2011H784.287C784.818 88.8938 787.607 93.1844 791.724 95.5978L830.238 117.989C834.886 120.67 840.597 120.67 845.245 117.989L883.626 95.5978C888.275 92.9162 891.196 87.8212 891.196 82.4581V50.6816H836.746C834.754 50.6816 833.027 48.9385 833.027 46.9274V46.3911C833.027 44.3799 834.754 42.6369 836.746 42.6369Z" fill="#FFDE70"/>
<path d="M962.515 42.6369H1016.97H1017.23V37.5419C1017.23 32.1788 1014.31 27.0838 1009.66 24.4022L971.147 2.01117C968.89 0.67039 966.234 0 963.577 0C960.921 0 958.265 0.67039 956.007 2.01117L917.494 24.4022C912.845 27.0838 909.924 32.1788 909.924 37.5419V76.1564H963.046C965.038 76.1564 966.765 77.8994 966.765 79.9106V80.4469C966.765 82.4581 965.038 84.2011 963.046 84.2011H910.056C910.588 88.8938 913.377 93.1844 917.494 95.5978L956.007 117.989C960.656 120.67 966.366 120.67 971.015 117.989L1009.4 95.5978C1014.04 92.9162 1016.97 87.8212 1016.97 82.4581V50.6816H962.515C960.523 50.6816 958.796 48.9385 958.796 46.9274V46.3911C958.796 44.3799 960.523 42.6369 962.515 42.6369Z" fill="#573FEA"/>
<path d="M1088.28 42.6369H1142.73H1143V37.5419C1143 32.1788 1140.08 27.0838 1135.43 24.4022L1096.92 2.01117C1094.66 0.67039 1092 0 1089.35 0C1086.69 0 1084.03 0.67039 1081.78 2.01117L1043.26 24.4022C1038.61 27.0838 1035.69 32.1788 1035.69 37.5419V76.1564H1088.82C1090.81 76.1564 1092.53 77.8994 1092.53 79.9106V80.4469C1092.53 82.4581 1090.81 84.2011 1088.82 84.2011H1035.83C1036.36 88.8938 1039.15 93.1844 1043.26 95.5978L1081.78 117.989C1086.42 120.67 1092.14 120.67 1096.78 117.989L1135.16 95.5978C1139.81 92.9162 1142.73 87.8212 1142.73 82.4581V50.6816H1088.28C1086.29 50.6816 1084.57 48.9385 1084.57 46.9274V46.3911C1084.57 44.3799 1086.29 42.6369 1088.28 42.6369Z" fill="#45C9C0"/>
<path d="M1214.05 42.6369H1268.5H1268.77V37.5419C1268.77 32.1788 1265.85 27.0838 1261.2 24.4022L1222.69 2.01117C1220.43 0.67039 1217.77 0 1215.12 0C1212.46 0 1209.8 0.67039 1207.55 2.01117L1169.03 24.4022C1164.38 27.0838 1161.46 32.1788 1161.46 37.5419V76.1564H1214.58C1216.58 76.1564 1218.3 77.8994 1218.3 79.9106V80.4469C1218.3 82.4581 1216.58 84.2011 1214.58 84.2011H1161.59C1162.13 88.8938 1164.92 93.1844 1169.03 95.5978L1207.55 117.989C1212.19 120.67 1217.9 120.67 1222.55 117.989L1260.93 95.5978C1265.58 92.9162 1268.5 87.8212 1268.5 82.4581V50.6816H1214.05C1212.06 50.6816 1210.33 48.9385 1210.33 46.9274V46.3911C1210.33 44.3799 1212.06 42.6369 1214.05 42.6369Z" fill="#F480D4"/>
<path d="M1339.82 42.6369H1394.27H1394.54V37.5419C1394.54 32.1788 1391.62 27.0838 1386.97 24.4022L1348.46 2.01117C1346.2 0.67039 1343.54 0 1340.89 0C1338.23 0 1335.57 0.67039 1333.32 2.01117L1294.8 24.4022C1290.15 27.0838 1287.23 32.1788 1287.23 37.5419V76.1564H1340.35C1342.35 76.1564 1344.07 77.8994 1344.07 79.9106V80.4469C1344.07 82.4581 1342.35 84.2011 1340.35 84.2011H1287.36C1287.9 88.8938 1290.68 93.1844 1294.8 95.5978L1333.32 117.989C1337.96 120.67 1343.67 120.67 1348.32 117.989L1386.7 95.5978C1391.35 92.9162 1394.27 87.8212 1394.27 82.4581V50.6816H1339.82C1337.83 50.6816 1336.1 48.9385 1336.1 46.9274V46.3911C1336.1 44.3799 1337.83 42.6369 1339.82 42.6369Z" fill="#FFDE70"/>
<path d="M1465.59 42.6369H1520.04H1520.31V37.5419C1520.31 32.1788 1517.39 27.0838 1512.74 24.4022L1474.22 2.01117C1471.97 0.67039 1469.31 0 1466.65 0C1464 0 1461.34 0.67039 1459.08 2.01117L1420.57 24.4022C1415.92 27.0838 1413 32.1788 1413 37.5419V76.1564H1466.12C1468.12 76.1564 1469.84 77.8994 1469.84 79.9106V80.4469C1469.84 82.4581 1468.12 84.2011 1466.12 84.2011H1413.13C1413.66 88.8938 1416.45 93.1844 1420.57 95.5978L1459.08 117.989C1463.73 120.67 1469.44 120.67 1474.09 117.989L1512.47 95.5978C1517.12 92.9162 1520.04 87.8212 1520.04 82.4581V50.6816H1465.59C1463.6 50.6816 1461.87 48.9385 1461.87 46.9274V46.3911C1461.87 44.3799 1463.6 42.6369 1465.59 42.6369Z" fill="#573FEA"/>
<path d="M1591.36 42.6369H1645.81H1646.08V37.5419C1646.08 32.1788 1643.16 27.0838 1638.51 24.4022L1599.99 2.01117C1597.74 0.67039 1595.08 0 1592.42 0C1589.77 0 1587.11 0.67039 1584.85 2.01117L1546.34 24.4022C1541.69 27.0838 1538.77 32.1788 1538.77 37.5419V76.1564H1591.89C1593.88 76.1564 1595.61 77.8994 1595.61 79.9106V80.4469C1595.61 82.4581 1593.88 84.2011 1591.89 84.2011H1538.9C1539.43 88.8938 1542.22 93.1844 1546.34 95.5978L1584.85 117.989C1589.5 120.67 1595.21 120.67 1599.86 117.989L1638.24 95.5978C1642.89 92.9162 1645.81 87.8212 1645.81 82.4581V50.6816H1591.36C1589.37 50.6816 1587.64 48.9385 1587.64 46.9274V46.3911C1587.64 44.3799 1589.37 42.6369 1591.36 42.6369Z" fill="#45C9C0"/>
<path d="M1717.13 42.6369H1771.58H1771.85V37.5419C1771.85 32.1788 1768.92 27.0838 1764.28 24.4022L1725.76 2.01117C1723.5 0.67039 1720.85 0 1718.19 0C1715.54 0 1712.88 0.67039 1710.62 2.01117L1672.11 24.4022C1667.46 27.0838 1664.54 32.1788 1664.54 37.5419V76.1564H1717.66C1719.65 76.1564 1721.38 77.8994 1721.38 79.9106V80.4469C1721.38 82.4581 1719.65 84.2011 1717.66 84.2011H1664.67C1665.2 88.8938 1667.99 93.1844 1672.11 95.5978L1710.62 117.989C1715.27 120.67 1720.98 120.67 1725.63 117.989L1764.01 95.5978C1768.66 92.9162 1771.58 87.8212 1771.58 82.4581V50.6816H1717.13C1715.14 50.6816 1713.41 48.9385 1713.41 46.9274V46.3911C1713.41 44.3799 1715.14 42.6369 1717.13 42.6369Z" fill="#F480D4"/>
<path d="M1842.9 42.6369H1897.35H1897.62V37.5419C1897.62 32.1788 1894.69 27.0838 1890.05 24.4022L1851.53 2.01117C1849.27 0.67039 1846.62 0 1843.96 0C1841.31 0 1838.65 0.67039 1836.39 2.01117L1797.88 24.4022C1793.23 27.0838 1790.31 32.1788 1790.31 37.5419V76.1564H1843.43C1845.42 76.1564 1847.15 77.8994 1847.15 79.9106V80.4469C1847.15 82.4581 1845.42 84.2011 1843.43 84.2011H1790.44C1790.97 88.8938 1793.76 93.1844 1797.88 95.5978L1836.39 117.989C1841.04 120.67 1846.75 120.67 1851.4 117.989L1889.78 95.5978C1894.43 92.9162 1897.35 87.8212 1897.35 82.4581V50.6816H1842.9C1840.91 50.6816 1839.18 48.9385 1839.18 46.9274V46.3911C1839.18 44.3799 1840.91 42.6369 1842.9 42.6369Z" fill="#FFDE70"/>
<path d="M1968.67 42.6369H2023.12H2023.39V37.5419C2023.39 32.1788 2020.46 27.0838 2015.82 24.4022L1977.3 2.01117C1975.04 0.67039 1972.39 0 1969.73 0C1967.08 0 1964.42 0.67039 1962.16 2.01117L1923.65 24.4022C1919 27.0838 1916.08 32.1788 1916.08 37.5419V76.1564H1969.2C1971.19 76.1564 1972.92 77.8994 1972.92 79.9106V80.4469C1972.92 82.4581 1971.19 84.2011 1969.2 84.2011H1916.21C1916.74 88.8938 1919.53 93.1844 1923.65 95.5978L1962.16 117.989C1966.81 120.67 1972.52 120.67 1977.17 117.989L2015.55 95.5978C2020.2 92.9162 2023.12 87.8212 2023.12 82.4581V50.6816H1968.67C1966.68 50.6816 1964.95 48.9385 1964.95 46.9274V46.3911C1964.95 44.3799 1966.68 42.6369 1968.67 42.6369Z" fill="#573FEA"/>
</svg>
