<svg width="120" height="32" viewBox="0 0 120 32" fill="none" xmlns="http://www.w3.org/2000/svg">
<path d="M9.81651 12.9971H19.2187H19.2646V12.116C19.2646 11.1885 18.7601 10.3074 17.9575 9.84365L11.3071 5.97135C10.9173 5.73947 10.4586 5.62354 9.99997 5.62354C9.54133 5.62354 9.08268 5.73947 8.69284 5.97135L2.04249 9.84365C1.23986 10.3074 0.735352 11.1885 0.735352 12.116V18.794H9.90824C10.2522 18.794 10.5503 19.0954 10.5503 19.4432V19.536C10.5503 19.8838 10.2522 20.1852 9.90824 20.1852H0.758284C0.850013 20.9968 1.33159 21.7388 2.04249 22.1562L8.69284 26.0285C9.49546 26.4922 10.4816 26.4922 11.2842 26.0285L17.9116 22.1562C18.7142 21.6924 19.2187 20.8113 19.2187 19.8838V14.3884H9.81651C9.47253 14.3884 9.17441 14.0869 9.17441 13.7391V13.6464C9.17441 13.2986 9.47253 12.9971 9.81651 12.9971Z" fill="#573FEA"/>
<path d="M35.1548 12.6378C35.098 12.0649 34.8542 11.6198 34.4233 11.3026C33.9924 10.9853 33.4077 10.8267 32.669 10.8267C32.1671 10.8267 31.7434 10.8977 31.3977 11.0398C31.0521 11.1771 30.7869 11.3688 30.6023 11.6151C30.4223 11.8613 30.3324 12.1406 30.3324 12.4531C30.3229 12.7135 30.3774 12.9408 30.4957 13.1349C30.6188 13.3291 30.7869 13.4972 31 13.6392C31.2131 13.7765 31.4593 13.8973 31.7386 14.0014C32.018 14.1009 32.3163 14.1861 32.6335 14.2571L33.9403 14.5696C34.5748 14.7116 35.1572 14.901 35.6875 15.1378C36.2178 15.3745 36.6771 15.6657 37.0653 16.0114C37.4536 16.357 37.7543 16.7642 37.9673 17.233C38.1851 17.7017 38.2964 18.2391 38.3011 18.8452C38.2964 19.7353 38.0691 20.5071 37.6193 21.1605C37.1742 21.8092 36.5303 22.3134 35.6875 22.6733C34.8494 23.0284 33.8385 23.206 32.6548 23.206C31.4806 23.206 30.4579 23.026 29.5866 22.6662C28.7202 22.3063 28.0431 21.7737 27.5554 21.0682C27.0724 20.358 26.8191 19.4796 26.7955 18.4332H29.7713C29.8045 18.9209 29.9441 19.3281 30.1903 19.6548C30.4413 19.9768 30.7751 20.2206 31.1918 20.3864C31.6132 20.5473 32.089 20.6278 32.6193 20.6278C33.1402 20.6278 33.5923 20.5521 33.9759 20.4006C34.3641 20.2491 34.6648 20.0384 34.8778 19.7685C35.0909 19.4986 35.1974 19.1884 35.1974 18.8381C35.1974 18.5114 35.1004 18.2367 34.9062 18.0142C34.7169 17.7917 34.4375 17.6023 34.0682 17.446C33.7036 17.2898 33.2562 17.1477 32.7259 17.0199L31.142 16.6222C29.9157 16.3239 28.9474 15.8575 28.2372 15.223C27.527 14.5885 27.1742 13.7339 27.179 12.6591C27.1742 11.7784 27.4086 11.009 27.8821 10.3509C28.3603 9.69271 29.0161 9.17898 29.8494 8.80966C30.6828 8.44034 31.6297 8.25568 32.6903 8.25568C33.7699 8.25568 34.7121 8.44034 35.517 8.80966C36.3267 9.17898 36.9564 9.69271 37.4062 10.3509C37.8561 11.009 38.0881 11.7713 38.1023 12.6378H35.1548ZM43.3384 16.6932V23H40.3129V8.45455H43.2532V14.0156H43.381C43.6272 13.3717 44.025 12.8674 44.5742 12.5028C45.1235 12.1335 45.8124 11.9489 46.641 11.9489C47.3986 11.9489 48.0591 12.1146 48.6225 12.446C49.1907 12.7727 49.631 13.2438 49.9435 13.8594C50.2608 14.4702 50.417 15.2017 50.4123 16.054V23H47.3867V16.5938C47.3915 15.9214 47.221 15.3982 46.8754 15.0241C46.5344 14.6501 46.0562 14.4631 45.4407 14.4631C45.0288 14.4631 44.6642 14.5507 44.3469 14.7259C44.0344 14.901 43.7882 15.1567 43.6083 15.4929C43.4331 15.8243 43.3432 16.2244 43.3384 16.6932ZM59.7891 18.3551V12.0909H62.8146V23H59.9098V21.0185H59.7962C59.55 21.6577 59.1404 22.1714 58.5675 22.5597C57.9993 22.9479 57.3056 23.142 56.4865 23.142C55.7573 23.142 55.1158 22.9763 54.5618 22.6449C54.0078 22.3134 53.5746 21.8423 53.2621 21.2315C52.9543 20.6207 52.7981 19.8892 52.7933 19.0369V12.0909H55.8189V18.4972C55.8236 19.1411 55.9964 19.6501 56.3374 20.0241C56.6783 20.3982 57.1352 20.5852 57.7081 20.5852C58.0727 20.5852 58.4136 20.5024 58.7308 20.3366C59.0481 20.1662 59.3037 19.9152 59.4979 19.5838C59.6967 19.2524 59.7938 18.8428 59.7891 18.3551ZM74.3114 15.2017L71.5415 15.3722C71.4942 15.1354 71.3924 14.9223 71.2362 14.733C71.0799 14.5388 70.8739 14.3849 70.6183 14.2713C70.3673 14.1529 70.0666 14.0938 69.7163 14.0938C69.2475 14.0938 68.8522 14.1932 68.5302 14.392C68.2082 14.5862 68.0472 14.8466 68.0472 15.1733C68.0472 15.4337 68.1514 15.6539 68.3597 15.8338C68.5681 16.0137 68.9255 16.1581 69.4322 16.267L71.4066 16.6648C72.4672 16.8826 73.2579 17.233 73.7788 17.7159C74.2996 18.1989 74.56 18.8333 74.56 19.6193C74.56 20.3343 74.3493 20.9616 73.9279 21.5014C73.5112 22.0412 72.9383 22.4626 72.2092 22.7656C71.4847 23.0639 70.649 23.2131 69.7021 23.2131C68.2579 23.2131 67.1074 22.9124 66.2504 22.3111C65.3981 21.705 64.8986 20.8812 64.7518 19.8395L67.7276 19.6832C67.8176 20.1236 68.0354 20.4598 68.381 20.6918C68.7267 20.919 69.1694 21.0327 69.7092 21.0327C70.2395 21.0327 70.6656 20.9309 70.9876 20.7273C71.3143 20.5189 71.48 20.2514 71.4847 19.9247C71.48 19.6501 71.364 19.4252 71.1367 19.25C70.9094 19.0701 70.5591 18.9328 70.0856 18.8381L68.1964 18.4616C67.131 18.2486 66.3379 17.8793 65.8171 17.3537C65.301 16.8281 65.043 16.1581 65.043 15.3438C65.043 14.643 65.2324 14.0393 65.6112 13.5327C65.9947 13.026 66.5321 12.6354 67.2234 12.3608C67.9194 12.0862 68.7338 11.9489 69.6665 11.9489C71.0444 11.9489 72.1287 12.2401 72.9194 12.8224C73.7148 13.4048 74.1789 14.1979 74.3114 15.2017ZM79.4908 16.6932V23H76.4652V8.45455H79.4055V14.0156H79.5334C79.7796 13.3717 80.1773 12.8674 80.7266 12.5028C81.2758 12.1335 81.9647 11.9489 82.7933 11.9489C83.5509 11.9489 84.2114 12.1146 84.7749 12.446C85.343 12.7727 85.7834 13.2438 86.0959 13.8594C86.4131 14.4702 86.5694 15.2017 86.5646 16.054V23H83.5391V16.5938C83.5438 15.9214 83.3733 15.3982 83.0277 15.0241C82.6868 14.6501 82.2086 14.4631 81.593 14.4631C81.1811 14.4631 80.8165 14.5507 80.4993 14.7259C80.1868 14.901 79.9406 15.1567 79.7607 15.4929C79.5855 15.8243 79.4955 16.2244 79.4908 16.6932ZM92.0565 23.206C91.3604 23.206 90.7402 23.0852 90.1957 22.8438C89.6512 22.5975 89.2203 22.2353 88.9031 21.7571C88.5906 21.2741 88.4343 20.6728 88.4343 19.9531C88.4343 19.3471 88.5456 18.8381 88.7681 18.4261C88.9906 18.0142 89.2937 17.6828 89.6772 17.4318C90.0607 17.1809 90.4963 16.9915 90.984 16.8636C91.4764 16.7358 91.9925 16.6458 92.5323 16.5938C93.1668 16.5275 93.6781 16.4659 94.0664 16.4091C94.4547 16.3475 94.7364 16.2576 94.9116 16.1392C95.0868 16.0208 95.1744 15.8456 95.1744 15.6136V15.571C95.1744 15.1212 95.0323 14.7732 94.7482 14.527C94.4689 14.2808 94.0711 14.1577 93.555 14.1577C93.0105 14.1577 92.5773 14.2784 92.2553 14.5199C91.9334 14.7566 91.7203 15.0549 91.6161 15.4148L88.8178 15.1875C88.9599 14.5246 89.2392 13.9517 89.6559 13.4688C90.0726 12.9811 90.61 12.607 91.2681 12.3466C91.931 12.0814 92.698 11.9489 93.5692 11.9489C94.1753 11.9489 94.7553 12.0199 95.3093 12.1619C95.868 12.304 96.3628 12.5241 96.7937 12.8224C97.2293 13.1207 97.5726 13.5043 97.8235 13.973C98.0745 14.437 98.1999 14.9934 98.1999 15.642V23H95.3306V21.4872H95.2454C95.0702 21.8281 94.8358 22.1288 94.5423 22.3892C94.2487 22.6449 93.896 22.8461 93.484 22.9929C93.0721 23.1349 92.5962 23.206 92.0565 23.206ZM92.9229 21.1179C93.368 21.1179 93.761 21.0303 94.1019 20.8551C94.4428 20.6752 94.7103 20.4337 94.9045 20.1307C95.0986 19.8277 95.1957 19.4844 95.1957 19.1009V17.9432C95.101 18.0047 94.9708 18.0616 94.805 18.1136C94.6441 18.161 94.4618 18.206 94.2582 18.2486C94.0546 18.2865 93.851 18.322 93.6474 18.3551C93.4438 18.3835 93.2591 18.4096 93.0934 18.4332C92.7383 18.4853 92.4281 18.5682 92.163 18.6818C91.8978 18.7955 91.6919 18.9493 91.5451 19.1435C91.3983 19.3329 91.3249 19.5696 91.3249 19.8537C91.3249 20.2656 91.4741 20.5805 91.7724 20.7983C92.0754 21.0114 92.4589 21.1179 92.9229 21.1179ZM103.573 16.6932V23H100.547V12.0909H103.431V14.0156H103.559C103.8 13.3812 104.205 12.8793 104.773 12.5099C105.341 12.1359 106.03 11.9489 106.84 11.9489C107.597 11.9489 108.258 12.1146 108.821 12.446C109.385 12.7775 109.823 13.2509 110.135 13.8665C110.448 14.4773 110.604 15.2064 110.604 16.054V23H107.578V16.5938C107.583 15.9261 107.413 15.4053 107.067 15.0312C106.721 14.6525 106.246 14.4631 105.64 14.4631C105.232 14.4631 104.873 14.5507 104.56 14.7259C104.252 14.901 104.011 15.1567 103.836 15.4929C103.665 15.8243 103.578 16.2244 103.573 16.6932ZM118.791 12.0909V14.3636H112.222V12.0909H118.791ZM113.713 9.47727H116.739V19.6477C116.739 19.9271 116.781 20.1449 116.866 20.3011C116.952 20.4527 117.07 20.5592 117.222 20.6207C117.378 20.6823 117.558 20.7131 117.761 20.7131C117.903 20.7131 118.045 20.7012 118.188 20.6776C118.33 20.6491 118.438 20.6278 118.514 20.6136L118.99 22.8651C118.839 22.9124 118.625 22.9669 118.351 23.0284C118.076 23.0947 117.742 23.1349 117.349 23.1491C116.62 23.1776 115.981 23.0805 115.432 22.858C114.887 22.6354 114.464 22.2898 114.161 21.821C113.857 21.3523 113.708 20.7604 113.713 20.0455V9.47727Z" fill="#573FEA"/>
</svg>
