<svg width="160" height="44" viewBox="0 0 160 44" fill="none" xmlns="http://www.w3.org/2000/svg">
<path d="M13.2553 17.9963H25.7916H25.8528V16.8214C25.8528 15.5848 25.1801 14.4099 24.1099 13.7916L15.2428 8.62854C14.723 8.31938 14.1115 8.16479 13.4999 8.16479C12.8884 8.16479 12.2769 8.31938 11.7571 8.62854L2.88994 13.7916C1.81978 14.4099 1.14709 15.5848 1.14709 16.8214V25.7254H13.3776C13.8363 25.7254 14.2338 26.1273 14.2338 26.5911V26.7147C14.2338 27.1785 13.8363 27.5804 13.3776 27.5804H1.17767C1.29998 28.6625 1.94208 29.6518 2.88994 30.2083L11.7571 35.3714C12.8272 35.9897 14.142 35.9897 15.2122 35.3714L24.0487 30.2083C25.1189 29.59 25.7916 28.4151 25.7916 27.1785V19.8513H13.2553C12.7967 19.8513 12.3992 19.4493 12.3992 18.9856V18.8619C12.3992 18.3982 12.7967 17.9963 13.2553 17.9963Z" fill="white"/>
<path d="M47.0397 18.1837C46.9639 17.4198 46.6388 16.8264 46.0643 16.4034C45.4898 15.9804 44.7101 15.7689 43.7253 15.7689C43.0561 15.7689 42.4911 15.8636 42.0302 16.053C41.5694 16.2361 41.2158 16.4918 40.9696 16.8201C40.7297 17.1484 40.6098 17.5208 40.6098 17.9375C40.5971 18.2847 40.6697 18.5878 40.8276 18.8466C40.9917 19.1054 41.2158 19.3295 41.4999 19.5189C41.784 19.702 42.1123 19.863 42.4848 20.0019C42.8572 20.1345 43.255 20.2481 43.6779 20.3428L45.4204 20.7595C46.2663 20.9489 47.0428 21.2014 47.7499 21.517C48.457 21.8327 49.0694 22.221 49.587 22.6818C50.1047 23.1427 50.5056 23.6856 50.7897 24.3106C51.0801 24.9356 51.2285 25.6521 51.2348 26.4602C51.2285 27.6471 50.9254 28.6761 50.3257 29.5473C49.7322 30.4122 48.8737 31.0846 47.7499 31.5644C46.6325 32.0379 45.2846 32.2746 43.7064 32.2746C42.1407 32.2746 40.7771 32.0347 39.6154 31.5549C38.4601 31.0751 37.5574 30.3649 36.9071 29.4242C36.2632 28.4773 35.9254 27.3062 35.8939 25.911H39.8617C39.9059 26.5612 40.0921 27.1042 40.4204 27.5398C40.755 27.9691 41.2 28.2942 41.7556 28.5152C42.3175 28.7298 42.9519 28.8371 43.659 28.8371C44.3535 28.8371 44.9564 28.7361 45.4677 28.5341C45.9854 28.3321 46.3863 28.0511 46.6704 27.6913C46.9545 27.3314 47.0965 26.9179 47.0965 26.4508C47.0965 26.0152 46.9671 25.649 46.7083 25.3523C46.4557 25.0556 46.0833 24.803 45.5908 24.5947C45.1047 24.3864 44.5081 24.197 43.8011 24.0265L41.6893 23.4962C40.0542 23.0985 38.7632 22.4766 37.8162 21.6307C36.8692 20.7847 36.3989 19.6452 36.4052 18.2121C36.3989 17.0379 36.7114 16.012 37.3427 15.1345C37.9803 14.2569 38.8547 13.572 39.9658 13.0795C41.0769 12.5871 42.3396 12.3409 43.7537 12.3409C45.1931 12.3409 46.4494 12.5871 47.5226 13.0795C48.6022 13.572 49.4418 14.2569 50.0416 15.1345C50.6413 16.012 50.9507 17.0284 50.9696 18.1837H47.0397ZM57.9512 23.5909V32H53.9171V12.6061H57.8375V20.0208H58.008C58.3363 19.1622 58.8666 18.4899 59.5989 18.0038C60.3312 17.5114 61.2498 17.2652 62.3546 17.2652C63.3647 17.2652 64.2453 17.4861 64.9966 17.928C65.7542 18.3636 66.3413 18.9918 66.758 19.8125C67.1809 20.6269 67.3893 21.6023 67.383 22.7386V32H63.3489V23.4583C63.3552 22.5619 63.1279 21.8643 62.6671 21.3655C62.2125 20.8668 61.5749 20.6174 60.7542 20.6174C60.2049 20.6174 59.7188 20.7342 59.2958 20.9678C58.8792 21.2014 58.5509 21.5423 58.311 21.9905C58.0774 22.4324 57.9575 22.9659 57.9512 23.5909ZM79.8853 25.8068V17.4545H83.9194V32H80.0463V29.358H79.8948C79.5665 30.2102 79.0204 30.8952 78.2566 31.4129C77.499 31.9306 76.5741 32.1894 75.4819 32.1894C74.5097 32.1894 73.6543 31.9684 72.9156 31.5265C72.177 31.0846 71.5994 30.4564 71.1827 29.642C70.7723 28.8277 70.564 27.8523 70.5577 26.7159V17.4545H74.5918V25.9962C74.5981 26.8548 74.8285 27.5335 75.2831 28.0322C75.7376 28.5309 76.3468 28.7803 77.1107 28.7803C77.5968 28.7803 78.0514 28.6698 78.4744 28.4489C78.8973 28.2216 79.2382 27.887 79.4971 27.4451C79.7622 27.0032 79.8917 26.4571 79.8853 25.8068ZM99.2485 21.6023L95.5553 21.8295C95.4922 21.5139 95.3565 21.2298 95.1481 20.9773C94.9398 20.7184 94.6652 20.5133 94.3243 20.3617C93.9897 20.2039 93.5888 20.125 93.1216 20.125C92.4966 20.125 91.9695 20.2576 91.5402 20.5227C91.1109 20.7816 90.8962 21.1288 90.8962 21.5644C90.8962 21.9116 91.0351 22.2052 91.3129 22.4451C91.5907 22.685 92.0673 22.8775 92.7428 23.0227L95.3754 23.553C96.7895 23.8434 97.8438 24.3106 98.5383 24.9545C99.2327 25.5985 99.5799 26.4444 99.5799 27.4924C99.5799 28.4457 99.299 29.2822 98.7371 30.0019C98.1816 30.7216 97.4177 31.2835 96.4455 31.6875C95.4796 32.0852 94.3653 32.2841 93.1027 32.2841C91.1772 32.2841 89.6431 31.8832 88.5004 31.0814C87.364 30.2734 86.698 29.1749 86.5023 27.786L90.4701 27.5777C90.59 28.1648 90.8804 28.613 91.3413 28.9223C91.8022 29.2254 92.3924 29.3769 93.1121 29.3769C93.8192 29.3769 94.3874 29.2412 94.8167 28.9697C95.2523 28.6919 95.4732 28.3352 95.4796 27.8996C95.4732 27.5335 95.3186 27.2336 95.0155 27C94.7125 26.7601 94.2453 26.577 93.614 26.4508L91.0951 25.9489C89.6746 25.6648 88.6172 25.1723 87.9227 24.4716C87.2346 23.7708 86.8905 22.8775 86.8905 21.7917C86.8905 20.8573 87.1431 20.0524 87.6481 19.3769C88.1595 18.7014 88.876 18.1806 89.7977 17.8144C90.7258 17.4482 91.8116 17.2652 93.0553 17.2652C94.8924 17.2652 96.3381 17.6534 97.3924 18.4299C98.453 19.2064 99.0717 20.2639 99.2485 21.6023ZM106.154 23.5909V32H102.12V12.6061H106.041V20.0208H106.211C106.539 19.1622 107.07 18.4899 107.802 18.0038C108.534 17.5114 109.453 17.2652 110.558 17.2652C111.568 17.2652 112.448 17.4861 113.2 17.928C113.957 18.3636 114.544 18.9918 114.961 19.8125C115.384 20.6269 115.592 21.6023 115.586 22.7386V32H111.552V23.4583C111.558 22.5619 111.331 21.8643 110.87 21.3655C110.416 20.8668 109.778 20.6174 108.957 20.6174C108.408 20.6174 107.922 20.7342 107.499 20.9678C107.082 21.2014 106.754 21.5423 106.514 21.9905C106.281 22.4324 106.161 22.9659 106.154 23.5909ZM122.909 32.2746C121.981 32.2746 121.153 32.1136 120.427 31.7917C119.701 31.4634 119.127 30.9804 118.704 30.3428C118.287 29.6989 118.079 28.8971 118.079 27.9375C118.079 27.1294 118.227 26.4508 118.524 25.9015C118.821 25.3523 119.225 24.9104 119.736 24.5758C120.248 24.2412 120.828 23.9886 121.479 23.8182C122.135 23.6477 122.823 23.5278 123.543 23.4583C124.389 23.3699 125.071 23.2879 125.588 23.2121C126.106 23.13 126.482 23.0101 126.715 22.8523C126.949 22.6944 127.066 22.4609 127.066 22.1515V22.0947C127.066 21.4949 126.876 21.0309 126.498 20.7027C126.125 20.3744 125.595 20.2102 124.907 20.2102C124.181 20.2102 123.603 20.3712 123.174 20.6932C122.744 21.0088 122.46 21.4066 122.321 21.8864L118.59 21.5833C118.78 20.6995 119.152 19.9356 119.708 19.2917C120.263 18.6414 120.98 18.1427 121.857 17.7955C122.741 17.4419 123.764 17.2652 124.926 17.2652C125.734 17.2652 126.507 17.3598 127.246 17.5492C127.991 17.7386 128.65 18.0322 129.225 18.4299C129.806 18.8277 130.263 19.339 130.598 19.964C130.933 20.5827 131.1 21.3245 131.1 22.1894V32H127.274V29.983H127.16C126.927 30.4375 126.614 30.8384 126.223 31.1856C125.832 31.5265 125.361 31.7948 124.812 31.9905C124.263 32.1799 123.628 32.2746 122.909 32.2746ZM124.064 29.4905C124.657 29.4905 125.181 29.3737 125.636 29.1402C126.09 28.9003 126.447 28.5783 126.706 28.1742C126.965 27.7702 127.094 27.3125 127.094 26.8011V25.2576C126.968 25.3396 126.794 25.4154 126.573 25.4848C126.359 25.548 126.116 25.608 125.844 25.6648C125.573 25.7153 125.301 25.7626 125.03 25.8068C124.758 25.8447 124.512 25.8794 124.291 25.911C123.818 25.9804 123.404 26.0909 123.051 26.2424C122.697 26.3939 122.422 26.5991 122.227 26.858C122.031 27.1105 121.933 27.4261 121.933 27.8049C121.933 28.3542 122.132 28.774 122.53 29.0644C122.934 29.3485 123.445 29.4905 124.064 29.4905ZM138.264 23.5909V32H134.23V17.4545H138.074V20.0208H138.245C138.567 19.1749 139.106 18.5057 139.864 18.0133C140.622 17.5145 141.54 17.2652 142.62 17.2652C143.63 17.2652 144.51 17.4861 145.262 17.928C146.013 18.3699 146.597 19.0013 147.014 19.822C147.43 20.6364 147.639 21.6086 147.639 22.7386V32H143.605V23.4583C143.611 22.5682 143.384 21.8737 142.923 21.375C142.462 20.8699 141.827 20.6174 141.019 20.6174C140.476 20.6174 139.997 20.7342 139.58 20.9678C139.17 21.2014 138.848 21.5423 138.614 21.9905C138.387 22.4324 138.27 22.9659 138.264 23.5909ZM158.555 17.4545V20.4848H149.795V17.4545H158.555ZM151.784 13.9697H155.818V27.5303C155.818 27.9028 155.875 28.1932 155.989 28.4015C156.102 28.6035 156.26 28.7456 156.462 28.8277C156.67 28.9097 156.91 28.9508 157.182 28.9508C157.371 28.9508 157.561 28.935 157.75 28.9034C157.939 28.8655 158.085 28.8371 158.186 28.8182L158.82 31.8201C158.618 31.8832 158.334 31.9558 157.968 32.0379C157.602 32.1263 157.156 32.1799 156.633 32.1989C155.66 32.2367 154.808 32.1073 154.076 31.8106C153.35 31.5139 152.785 31.053 152.381 30.428C151.977 29.803 151.778 29.0139 151.784 28.0606V13.9697Z" fill="white"/>
</svg>
