<svg width="20" height="22" viewBox="0 0 20 22" fill="none" xmlns="http://www.w3.org/2000/svg">
<path id="logo" d="M9.81651 7.99714H19.2187H19.2646V7.11602C19.2646 6.18852 18.7601 5.3074 17.9575 4.84365L11.3071 0.971347C10.9173 0.739472 10.4586 0.623535 9.99997 0.623535C9.54133 0.623535 9.08268 0.739472 8.69284 0.971347L2.04249 4.84365C1.23986 5.3074 0.735352 6.18852 0.735352 7.11602V13.794H9.90824C10.2522 13.794 10.5503 14.0954 10.5503 14.4432V14.536C10.5503 14.8838 10.2522 15.1852 9.90824 15.1852H0.758284C0.850013 15.9968 1.33159 16.7388 2.04249 17.1562L8.69284 21.0285C9.49546 21.4922 10.4816 21.4922 11.2842 21.0285L17.9116 17.1562C18.7142 16.6924 19.2187 15.8113 19.2187 14.8838V9.38838H9.81651C9.47253 9.38838 9.17441 9.08695 9.17441 8.73913V8.64639C9.17441 8.29857 9.47253 7.99714 9.81651 7.99714Z" fill="#573FEA"/>
</svg>
