<svg width="32" height="32" viewBox="0 0 32 32" fill="none" xmlns="http://www.w3.org/2000/svg">
<g id="62bc16d481d5d6992d83b74d_icon.svg">
<path id="Vector" fill-rule="evenodd" clip-rule="evenodd" d="M23.8988 8.82296C23.8342 8.66685 23.7387 8.52053 23.6123 8.39336C23.6104 8.39147 23.6085 8.38958 23.6066 8.3877C23.3467 8.12923 23.0067 8 22.6667 8H9.33333C8.59695 8 8 8.59695 8 9.33333C8 10.0697 8.59695 10.6667 9.33333 10.6667H19.4477L8.39052 21.7239C7.86983 22.2446 7.86983 23.0888 8.39052 23.6095C8.91122 24.1302 9.75544 24.1302 10.2761 23.6095L21.3333 12.5523V22.6667C21.3333 23.403 21.9303 24 22.6667 24C23.403 24 24 23.403 24 22.6667V9.33529C24 9.3292 24 9.32311 23.9999 9.31702C23.9978 9.14218 23.9621 8.97543 23.8988 8.82296Z" fill="white"/>
</g>
</svg>
