<svg width="63" height="52" viewBox="0 0 63 52" fill="none" xmlns="http://www.w3.org/2000/svg">
<g id="Layer_1" clip-path="url(#clip0_1379_21721)">
<path id="Vector" d="M32.4511 47.0848L31.3717 44.9155L30.3008 47.0848L27.8936 47.4251L29.6326 49.118L29.2214 51.5L31.3717 50.3686L33.5305 51.5L33.1193 49.118L34.8583 47.4251L32.4511 47.0848Z" fill="url(#paint0_linear_1379_21721)"/>
<path id="Vector_2" d="M17.0562 42.4484C17.5017 39.9133 16.2852 36.1362 15.0688 34.3667C13.9808 36.1532 13.4668 39.4539 15.4543 41.4191C14.0407 40.7385 12.2332 40.4833 8.85785 40.8236C8.29245 40.8831 7.79557 40.9597 7.44434 41.0618C10.0058 43.4523 14.4177 44.6518 17.0562 42.4569V42.4484Z" fill="url(#paint1_linear_1379_21721)"/>
<path id="Vector_3" d="M12.7904 39.2839C13.7585 37.0721 13.4929 33.4396 12.5249 31.2107C10.7858 33.1928 10.1861 36.0512 11.5997 38.1014C9.53507 36.4851 6.57953 35.9236 4.1123 36.1363C6.05696 38.9096 9.99767 40.6791 12.7904 39.2839Z" fill="url(#paint2_linear_1379_21721)"/>
<path id="Vector_4" d="M9.37229 35.3194C10.743 33.4394 11.1627 29.8409 10.5631 27.6035C8.68695 29.1773 7.62467 31.8741 8.54988 34.0519C6.72516 31.9336 3.44409 31.0149 1.81641 30.8702C3.19566 33.8392 6.57096 36.0681 9.37229 35.3194Z" fill="url(#paint3_linear_1379_21721)"/>
<path id="Vector_5" d="M6.86188 30.8704C8.49813 29.3221 9.2777 26.0384 8.995 23.7925C7.13601 24.958 5.73963 27.0252 6.11657 29.1349C4.96862 27.2208 2.98113 26.0639 0.710938 25.4684C1.46481 28.2757 4.12051 31.1086 6.86188 30.8704Z" fill="url(#paint4_linear_1379_21721)"/>
<path id="Vector_6" d="M5.14006 25.8682C6.92195 24.7197 8.49823 21.5806 8.5068 19.5049C5.9282 20.6363 4.74599 22.8482 4.85736 24.6772C4.24912 23.1034 2.66426 21.0787 0 19.8537C0.299837 23.0949 2.89557 25.664 5.14006 25.8597V25.8682Z" fill="url(#paint5_linear_1379_21721)"/>
<path id="Vector_7" d="M4.32578 20.832C5.78213 20.2194 8.18083 17.8204 8.27506 14.8855C5.50799 16.1786 4.42858 18.2883 4.26581 19.7771C4.01738 18.3904 3.04933 16.2296 0.170898 14.8855C0.247999 17.1654 2.08129 20.2705 4.31721 20.832H4.32578Z" fill="url(#paint6_linear_1379_21721)"/>
<path id="Vector_8" d="M4.22343 15.7361C5.73118 15.2512 8.01851 12.8778 8.06134 10.0959C6.75063 10.7255 5.33711 11.7804 4.83167 12.9884C4.54897 13.6519 4.3091 14.324 4.22343 14.9025C4.08636 13.6944 3.34962 11.5251 0.376953 10.0959C0.419787 12.8778 2.70711 15.2512 4.21486 15.7361H4.22343Z" fill="url(#paint7_linear_1379_21721)"/>
<path id="Vector_9" d="M4.22313 10.632C5.49958 10.2407 7.85544 8.0629 7.85544 5.2981C5.07124 6.68475 4.35163 8.786 4.22313 9.91744C4.08606 8.79451 3.36645 6.69326 0.59082 5.2981C0.59082 8.0629 2.94668 10.2407 4.22313 10.632Z" fill="url(#paint8_linear_1379_21721)"/>
<path id="Vector_10" d="M21.8283 38.7563C21.6913 39.8112 21.8283 44.303 25.1008 46.5233C21.3657 45.2217 17.6392 47.7739 16.8682 48.5055C19.6781 49.4583 23.9957 49.722 26.6343 47.289C27.0455 43.7415 24.2698 40.4408 21.8369 38.7563H21.8283Z" fill="url(#paint9_linear_1379_21721)"/>
<path id="Vector_11" d="M18.0162 36.7912C16.9796 39.4965 17.6221 42.4995 20.2435 44.1243C16.7311 43.0354 12.0451 45.0176 11.6768 45.2132C15.3176 47.3996 19.4297 46.8891 21.6827 44.8049C22.0425 41.7083 19.4211 38.2544 18.0162 36.7827V36.7912Z" fill="url(#paint10_linear_1379_21721)"/>
<path id="Vector_12" d="M4.36884 6.44646C6.3135 5.11935 5.85089 2.35455 4.31744 0.5C2.80112 2.4141 2.41562 5.14487 4.36884 6.44646Z" fill="url(#paint11_linear_1379_21721)"/>
<path id="Vector_13" d="M47.5368 41.4191C49.5243 39.4539 49.0103 36.1532 47.9223 34.3667C46.7058 36.1362 45.4894 39.9133 45.9348 42.4484C48.5734 44.6518 52.9853 43.4523 55.5468 41.0533C55.1955 40.9512 54.6986 40.8746 54.1332 40.8151C50.7579 40.4748 48.9503 40.7215 47.5368 41.4106V41.4191Z" fill="url(#paint12_linear_1379_21721)"/>
<path id="Vector_14" d="M51.4007 38.1014C52.8228 36.0512 52.2146 33.1928 50.4755 31.2107C49.5075 33.4396 49.2333 37.0721 50.2099 39.2839C53.0027 40.6791 56.9434 38.9096 58.8881 36.1363C56.4208 35.9236 53.4653 36.4936 51.4007 38.1014Z" fill="url(#paint13_linear_1379_21721)"/>
<path id="Vector_15" d="M54.4591 34.0519C55.3757 31.8741 54.3134 29.1773 52.4459 27.6035C51.8376 29.8409 52.266 33.4309 53.6367 35.3194C56.438 36.0681 59.8219 33.8392 61.1926 30.8702C59.5649 31.0234 56.2924 31.9336 54.4591 34.0519Z" fill="url(#paint14_linear_1379_21721)"/>
<path id="Vector_16" d="M56.8748 29.1349C57.2603 27.0167 55.8639 24.958 53.9964 23.7925C53.7137 26.0384 54.4932 29.3221 56.1295 30.8704C58.8709 31.1086 61.5266 28.2757 62.2804 25.4684C60.0102 26.0639 58.0228 27.2208 56.8748 29.1349Z" fill="url(#paint15_linear_1379_21721)"/>
<path id="Vector_17" d="M57.8599 25.8682C60.1044 25.6641 62.7001 23.1034 63 19.8622C60.3357 21.0872 58.7508 23.1119 58.1426 24.6857C58.254 22.8567 57.0632 20.6449 54.4932 19.5134C54.5103 21.5892 56.078 24.7198 57.8599 25.8767V25.8682Z" fill="url(#paint16_linear_1379_21721)"/>
<path id="Vector_18" d="M58.6737 20.832C60.9096 20.2705 62.7514 17.1654 62.82 14.8855C59.9501 16.2296 58.9821 18.3904 58.7251 19.7771C58.5623 18.2883 57.4915 16.1786 54.7158 14.8855C54.8101 17.829 57.2088 20.2194 58.6651 20.832H58.6737Z" fill="url(#paint17_linear_1379_21721)"/>
<path id="Vector_19" d="M58.7762 15.7361C60.2839 15.2512 62.5712 12.8778 62.6141 10.0959C59.65 11.5336 58.9132 13.6944 58.7676 14.9025C58.6734 14.324 58.4335 13.6604 58.1594 12.9884C57.6539 11.7804 56.2404 10.7255 54.9297 10.0959C54.9725 12.8778 57.2598 15.2512 58.7676 15.7361H58.7762Z" fill="url(#paint18_linear_1379_21721)"/>
<path id="Vector_20" d="M58.7768 10.632C60.0533 10.2407 62.4091 8.0629 62.4091 5.2981C59.6249 6.68475 58.9053 8.786 58.7768 9.91744C58.6398 8.79451 57.9202 6.69326 55.1445 5.2981C55.1445 8.0629 57.5004 10.2407 58.7768 10.632Z" fill="url(#paint19_linear_1379_21721)"/>
<path id="Vector_21" d="M37.9075 46.5233C41.18 44.3115 41.3085 39.8112 41.18 38.7563C38.747 40.4408 35.9714 43.7415 36.3826 47.289C39.0212 49.722 43.3388 49.4583 46.1487 48.5055C45.3691 47.7739 41.6512 45.2132 37.916 46.5233H37.9075Z" fill="url(#paint20_linear_1379_21721)"/>
<path id="Vector_22" d="M42.7564 44.1329C45.3779 42.4996 46.0204 39.4966 44.9838 36.7998C43.5788 38.2715 40.9488 41.7169 41.3172 44.822C43.5703 46.9062 47.6823 47.4167 51.3232 45.2303C50.9548 45.0347 46.2774 43.0525 42.7564 44.1414V44.1329Z" fill="url(#paint21_linear_1379_21721)"/>
<path id="Vector_23" d="M58.6392 6.44646C60.5924 5.15338 60.2069 2.4226 58.6906 0.5C57.1571 2.35455 56.6945 5.11935 58.6392 6.44646Z" fill="url(#paint22_linear_1379_21721)"/>
</g>
<defs>
<linearGradient id="paint0_linear_1379_21721" x1="27.8936" y1="48.2078" x2="34.8583" y2="48.2078" gradientUnits="userSpaceOnUse">
<stop stop-color="#DDC18E"/>
<stop offset="1" stop-color="#B1915D"/>
</linearGradient>
<linearGradient id="paint1_linear_1379_21721" x1="7.4529" y1="38.986" x2="17.1505" y2="38.986" gradientUnits="userSpaceOnUse">
<stop stop-color="#DDC18E"/>
<stop offset="1" stop-color="#B1915D"/>
</linearGradient>
<linearGradient id="paint2_linear_1379_21721" x1="4.12087" y1="35.4983" x2="13.3987" y2="35.4983" gradientUnits="userSpaceOnUse">
<stop stop-color="#DDC18E"/>
<stop offset="1" stop-color="#B1915D"/>
</linearGradient>
<linearGradient id="paint3_linear_1379_21721" x1="1.81641" y1="31.5338" x2="10.8286" y2="31.5338" gradientUnits="userSpaceOnUse">
<stop stop-color="#DDC18E"/>
<stop offset="1" stop-color="#B1915D"/>
</linearGradient>
<linearGradient id="paint4_linear_1379_21721" x1="0.719504" y1="27.3399" x2="9.05497" y2="27.3399" gradientUnits="userSpaceOnUse">
<stop stop-color="#DDC18E"/>
<stop offset="1" stop-color="#B1915D"/>
</linearGradient>
<linearGradient id="paint5_linear_1379_21721" x1="0" y1="22.6865" x2="8.5068" y2="22.6865" gradientUnits="userSpaceOnUse">
<stop stop-color="#DDC18E"/>
<stop offset="1" stop-color="#B1915D"/>
</linearGradient>
<linearGradient id="paint6_linear_1379_21721" x1="0.170898" y1="17.863" x2="8.27506" y2="17.863" gradientUnits="userSpaceOnUse">
<stop stop-color="#DDC18E"/>
<stop offset="1" stop-color="#B1915D"/>
</linearGradient>
<linearGradient id="paint7_linear_1379_21721" x1="0.376953" y1="12.9118" x2="8.06134" y2="12.9118" gradientUnits="userSpaceOnUse">
<stop stop-color="#DDC18E"/>
<stop offset="1" stop-color="#B1915D"/>
</linearGradient>
<linearGradient id="paint8_linear_1379_21721" x1="0.59082" y1="7.96932" x2="7.85544" y2="7.96932" gradientUnits="userSpaceOnUse">
<stop stop-color="#DDC18E"/>
<stop offset="1" stop-color="#B1915D"/>
</linearGradient>
<linearGradient id="paint9_linear_1379_21721" x1="16.8596" y1="43.9797" x2="26.6685" y2="43.9797" gradientUnits="userSpaceOnUse">
<stop stop-color="#DDC18E"/>
<stop offset="1" stop-color="#B1915D"/>
</linearGradient>
<linearGradient id="paint10_linear_1379_21721" x1="11.6853" y1="41.7168" x2="21.717" y2="41.7168" gradientUnits="userSpaceOnUse">
<stop stop-color="#DDC18E"/>
<stop offset="1" stop-color="#B1915D"/>
</linearGradient>
<linearGradient id="paint11_linear_1379_21721" x1="3.03242" y1="3.46897" x2="5.65385" y2="3.46897" gradientUnits="userSpaceOnUse">
<stop stop-color="#DDC18E"/>
<stop offset="1" stop-color="#B1915D"/>
</linearGradient>
<linearGradient id="paint12_linear_1379_21721" x1="45.8492" y1="38.986" x2="55.5553" y2="38.986" gradientUnits="userSpaceOnUse">
<stop stop-color="#DDC18E"/>
<stop offset="1" stop-color="#B1915D"/>
</linearGradient>
<linearGradient id="paint13_linear_1379_21721" x1="49.6017" y1="35.4983" x2="58.8881" y2="35.4983" gradientUnits="userSpaceOnUse">
<stop stop-color="#DDC18E"/>
<stop offset="1" stop-color="#B1915D"/>
</linearGradient>
<linearGradient id="paint14_linear_1379_21721" x1="52.1717" y1="31.5338" x2="61.184" y2="31.5338" gradientUnits="userSpaceOnUse">
<stop stop-color="#DDC18E"/>
<stop offset="1" stop-color="#B1915D"/>
</linearGradient>
<linearGradient id="paint15_linear_1379_21721" x1="53.945" y1="27.3399" x2="62.2804" y2="27.3399" gradientUnits="userSpaceOnUse">
<stop stop-color="#DDC18E"/>
<stop offset="1" stop-color="#B1915D"/>
</linearGradient>
<linearGradient id="paint16_linear_1379_21721" x1="54.4932" y1="22.6866" x2="63" y2="22.6866" gradientUnits="userSpaceOnUse">
<stop stop-color="#DDC18E"/>
<stop offset="1" stop-color="#B1915D"/>
</linearGradient>
<linearGradient id="paint17_linear_1379_21721" x1="54.733" y1="17.863" x2="62.8286" y2="17.863" gradientUnits="userSpaceOnUse">
<stop stop-color="#DDC18E"/>
<stop offset="1" stop-color="#B1915D"/>
</linearGradient>
<linearGradient id="paint18_linear_1379_21721" x1="54.9383" y1="12.9118" x2="62.6226" y2="12.9118" gradientUnits="userSpaceOnUse">
<stop stop-color="#DDC18E"/>
<stop offset="1" stop-color="#B1915D"/>
</linearGradient>
<linearGradient id="paint19_linear_1379_21721" x1="55.1445" y1="7.96932" x2="62.4091" y2="7.96932" gradientUnits="userSpaceOnUse">
<stop stop-color="#DDC18E"/>
<stop offset="1" stop-color="#B1915D"/>
</linearGradient>
<linearGradient id="paint20_linear_1379_21721" x1="36.3398" y1="43.9797" x2="46.1401" y2="43.9797" gradientUnits="userSpaceOnUse">
<stop stop-color="#DDC18E"/>
<stop offset="1" stop-color="#B1915D"/>
</linearGradient>
<linearGradient id="paint21_linear_1379_21721" x1="41.283" y1="41.7169" x2="51.3146" y2="41.7169" gradientUnits="userSpaceOnUse">
<stop stop-color="#DDC18E"/>
<stop offset="1" stop-color="#B1915D"/>
</linearGradient>
<linearGradient id="paint22_linear_1379_21721" x1="57.3541" y1="3.46897" x2="59.967" y2="3.46897" gradientUnits="userSpaceOnUse">
<stop stop-color="#DDC18E"/>
<stop offset="1" stop-color="#B1915D"/>
</linearGradient>
<clipPath id="clip0_1379_21721">
<rect width="63" height="51" fill="white" transform="translate(0 0.5)"/>
</clipPath>
</defs>
</svg>
